<?xml version="1.0" encoding="UTF-8"?>
<svg xmlns="http://www.w3.org/2000/svg" xmlns:xlink="http://www.w3.org/1999/xlink" width="16px" height="16px" viewBox="0 0 16 16" version="1.1">
<g id="surface1">
<path style=" stroke:none;fill-rule:nonzero;fill:rgb(92.941176%,54.117647%,9.803922%);fill-opacity:1;" d="M 8.773438 0.828125 L 10.578125 4.484375 C 10.703125 4.742188 10.945312 4.917969 11.226562 4.957031 L 15.261719 5.542969 C 15.96875 5.648438 16.25 6.515625 15.738281 7.011719 L 12.820312 9.859375 C 12.617188 10.058594 12.523438 10.34375 12.570312 10.621094 L 13.261719 14.640625 C 13.382812 15.34375 12.640625 15.882812 12.011719 15.550781 L 8.402344 13.652344 C 8.148438 13.519531 7.851562 13.519531 7.597656 13.652344 L 3.988281 15.550781 C 3.359375 15.882812 2.617188 15.34375 2.738281 14.640625 L 3.429688 10.621094 C 3.476562 10.34375 3.382812 10.058594 3.179688 9.859375 L 0.261719 7.011719 C -0.25 6.515625 0.03125 5.644531 0.738281 5.542969 L 4.773438 4.957031 C 5.054688 4.917969 5.296875 4.742188 5.421875 4.484375 L 7.226562 0.828125 C 7.542969 0.1875 8.457031 0.1875 8.773438 0.828125 Z M 8.773438 0.828125 "/>
</g>
</svg>
