<?xml version="1.0" encoding="UTF-8"?>
<svg id="katman_1" data-name="katman 1" xmlns="http://www.w3.org/2000/svg" viewBox="0 0 335.91 54.23">
  <defs>
    <style>
      .cls-1 {
        fill: #ffa300;
      }

      .cls-2 {
        fill: #071f39;
      }
    </style>
  </defs>
  <g>
    <path class="cls-2" d="M45.4,28.79c.31-3.19,.52-5.75,.63-7.66,.17-2.86,.34-6.55,.51-11.09,.13-3.47,.19-5.96,.19-7.45V.13c1.64,.04,3.05,.06,4.24,.06s2.65-.03,4.51-.09c1.86-.06,3.61-.09,5.25-.09,1.87,0,3.52,.11,4.93,.34,1.41,.22,2.73,.69,3.96,1.39,1.22,.7,2.25,1.62,3.07,2.75s1.46,2.46,1.89,3.98c.43,1.52,.65,3.08,.65,4.69s-.17,3.1-.5,4.57c-.34,1.46-.81,2.78-1.41,3.96-.6,1.18-1.31,2.19-2.11,3.03-.8,.85-1.73,1.57-2.76,2.17-.77,.45-1.55,.8-2.33,1.05-.78,.25-1.85,.46-3.21,.61-1.51,.17-3.23,.25-5.14,.25l-8.48-.06c-.8,0-2.09,.02-3.88,.06Zm9.08-6.32c.77,.07,1.57,.1,2.41,.1,1.43,0,2.7-.13,3.82-.38,1.12-.25,2.1-.79,2.95-1.62,.85-.83,1.47-1.89,1.88-3.18,.41-1.29,.61-2.62,.61-3.98,0-1.67-.3-3.07-.9-4.21-.6-1.14-1.4-1.93-2.4-2.38-1-.45-2.36-.67-4.08-.67-1.01,0-2.2,.04-3.57,.13l-.71,16.19Z"/>
    <path class="cls-2" d="M76.45,20.56c.17-2.04,.27-3.98,.31-5.84,1.99,.06,3.86,.08,5.63,.08s3.67-.03,5.65-.08c-.17,1.81-.27,3.76-.31,5.84-1.99-.04-3.87-.06-5.65-.06s-3.65,.02-5.63,.06Z"/>
    <path class="cls-2" d="M90.18,28.79c.29-2.84,.5-5.12,.61-6.84,.17-2.55,.33-6.05,.48-10.51,.15-4.46,.23-7.46,.23-9V.13c4.21,.03,8.13,.04,11.76,.04s7.17-.01,10.54-.04c-.22,3.22-.34,5.33-.34,6.32l-1.83-.06-1.47-.02-1.47-.02h-4.14c-.48,0-1.87,.01-4.18,.04l-.19,4.89,3.04,.06h3.4c.98,0,2.48-.02,4.49-.06-.15,2.65-.23,4.72-.23,6.21-2.25-.07-3.92-.1-5.01-.1-1.85,0-3.86,.04-6.04,.1l-.22,7.56-.02,2.81v.92l-4.52-.04c-.35,0-1.99,.01-4.92,.04Z"/>
    <path class="cls-2" d="M116.28,28.79c.35-3.3,.6-6,.76-8.08,.3-3.81,.52-7.59,.67-11.35,.15-3.76,.22-6.83,.22-9.23,1.9,.03,3.59,.04,5.06,.04,.99,0,2.42-.01,4.28-.04l-.51,7.6-.63,11.88-.08,2.92c2.41,.04,3.98,.06,4.71,.06,3.68,0,6.47-.05,8.36-.15l-.46,6.34c-3.68-.03-7.19-.04-10.52-.04-4.51,0-8.45,.01-11.84,.04Z"/>
    <path class="cls-2" d="M141.66,28.79c.35-3.61,.61-6.63,.77-9.07,.16-2.44,.32-5.67,.48-9.71,.16-4.04,.24-6.71,.24-8.03l-.02-1.85c3.3,.03,7.3,.04,11.99,.04,4.32,0,8.14-.01,11.44-.04l-.04,.69c-.01,.17-.05,.77-.1,1.82l-.13,2.28c-.03,.49-.04,.98-.04,1.49-2.7-.11-4.97-.17-6.8-.17-2.02,0-3.38,0-4.08,.01-.71,0-1.81,.04-3.31,.09l-.25,4.83c1.65,.04,3.58,.06,5.78,.06,.78,0,2.87-.05,6.26-.15-.14,1.79-.27,3.93-.4,6.4-2.42-.03-4.28-.04-5.58-.04-1.93,0-4.09,.05-6.48,.15l-.25,5.1h2.41c.71,0,2.19-.02,4.43-.06l4.34-.1c.64-.01,1.72-.07,3.23-.17-.17,2.07-.31,4.21-.42,6.42-3.42-.03-7.16-.04-11.23-.04l-9.24,.02-2.98,.02Z"/>
    <path class="cls-2" d="M165.98,28.79c1.64-2.07,3.63-4.67,5.97-7.81,2.34-3.14,4.16-5.63,5.45-7.47l-2.48-4.18c-.46-.76-1.13-1.81-2-3.17l-2.1-3.25c-.52-.81-1.1-1.74-1.74-2.77,1.81,.03,3.65,.04,5.54,.04,1.5,0,3.1-.01,4.81-.04,.62,1.22,1.34,2.54,2.17,3.96,.83,1.42,1.49,2.66,1.98,3.71,.56-.97,1.32-2.17,2.29-3.6,.97-1.44,1.81-2.79,2.54-4.06,1.48,.03,3.1,.04,4.85,.04,1.13,0,2.74-.01,4.83-.04-1.01,1.44-2.51,3.49-4.49,6.13-1.99,2.65-3.87,5.26-5.65,7.83,2.27,3.86,5.35,8.76,9.24,14.7-2.21-.03-3.87-.04-4.98-.04-1.85,0-3.67,.01-5.48,.04-.55-1.12-1.31-2.54-2.3-4.25-.99-1.71-1.84-3.29-2.57-4.73-.55,.98-1.44,2.36-2.69,4.14-1.25,1.78-2.34,3.39-3.3,4.85-2.04-.03-3.66-.04-4.85-.04-1.32,0-3,.01-5.06,.04Z"/>
  </g>
  <g>
    <path class="cls-1" d="M208.3,30.12c.31-3.19,.52-5.75,.63-7.66,.17-2.86,.34-6.55,.51-11.09,.13-3.47,.19-5.96,.19-7.45V1.46c1.64,.04,3.05,.06,4.24,.06s2.65-.03,4.51-.09c1.86-.06,3.61-.09,5.25-.09,1.88,0,3.52,.11,4.93,.34,1.41,.22,2.73,.69,3.96,1.39,1.22,.7,2.25,1.62,3.07,2.75,.83,1.13,1.46,2.46,1.89,3.98,.43,1.52,.65,3.08,.65,4.69s-.17,3.1-.5,4.57c-.34,1.46-.8,2.78-1.41,3.96-.6,1.18-1.31,2.19-2.11,3.03-.8,.85-1.73,1.57-2.76,2.17-.77,.45-1.55,.8-2.33,1.05s-1.85,.46-3.21,.61c-1.51,.17-3.23,.25-5.14,.25l-8.48-.06c-.8,0-2.09,.02-3.88,.06Zm9.08-6.32c.77,.07,1.57,.1,2.41,.1,1.43,0,2.7-.13,3.82-.38,1.12-.25,2.1-.79,2.95-1.62,.85-.83,1.47-1.89,1.88-3.18,.41-1.29,.61-2.62,.61-3.98,0-1.67-.3-3.07-.9-4.21-.6-1.14-1.4-1.93-2.4-2.38-1-.45-2.36-.67-4.08-.67-1.01,0-2.2,.04-3.57,.13l-.71,16.19Z"/>
    <path class="cls-1" d="M241.14,30.12c.19-1.71,.34-3.11,.44-4.22,.1-1.11,.19-2.52,.28-4.24,.09-1.72,.17-3.62,.24-5.71,.07-2.09,.12-4.51,.17-7.26,1.82,.03,3.28,.04,4.37,.04,.99,0,2.42-.01,4.29-.04-.24,2.65-.41,4.97-.52,6.97-.11,2-.17,4.12-.2,6.36-.06,3.98-.08,6.68-.08,8.1-1.66-.03-3.1-.04-4.3-.04s-2.75,.01-4.68,.04Zm1.32-24.12c.08-1.67,.13-2.98,.13-3.95,0-.28,0-.66-.02-1.13,1.69,.03,3.11,.04,4.26,.04,1.58,0,2.97-.01,4.16-.04-.04,.43-.07,.8-.08,1.09l-.13,2.6c-.03,.39-.04,.85-.04,1.39-1.39-.03-2.72-.04-3.99-.04s-2.74,.01-4.28,.04Z"/>
    <path class="cls-1" d="M264.15,8.68l-.44,10.69-.21,9.91c-.03,1.37-.04,2.18-.04,2.41,0,1.61-.12,2.98-.37,4.1-.24,1.13-.73,2.03-1.47,2.71-.74,.68-1.65,1.16-2.73,1.43-1.08,.27-2.32,.41-3.71,.41-.83,0-1.84-.05-3.04-.14-1.2-.1-2.53-.27-4-.53-.08-1.53-.27-3.61-.57-6.24,1.25,.38,2.34,.57,3.3,.57,.77,0,1.46-.15,2.08-.44,.49-.22,.88-.52,1.16-.88,.28-.36,.5-.85,.65-1.47,.14-.55,.26-1.48,.36-2.79,.17-2.58,.3-5.72,.4-9.43,.07-3.15,.1-5.87,.1-8.17v-2.14c1.67,.03,3.11,.04,4.33,.04,1.29,0,2.69-.01,4.2-.04Zm-8.27-2.77c.14-2.04,.22-3.7,.23-5,1.15,.03,2.53,.04,4.16,.04,1.46,0,2.83-.01,4.12-.04-.14,2.04-.23,3.7-.27,5-1.37-.04-2.74-.06-4.12-.06s-2.79,.02-4.12,.06Z"/>
    <path class="cls-1" d="M268.03,30.12c.2-1.71,.34-3.11,.44-4.22,.1-1.11,.19-2.52,.28-4.24,.09-1.72,.17-3.62,.24-5.71,.07-2.09,.12-4.51,.17-7.26,1.82,.03,3.28,.04,4.37,.04,.99,0,2.42-.01,4.29-.04-.24,2.65-.41,4.97-.52,6.97-.11,2-.17,4.12-.2,6.36-.06,3.98-.08,6.68-.08,8.1-1.66-.03-3.1-.04-4.3-.04s-2.75,.01-4.68,.04Zm1.32-24.12c.08-1.67,.12-2.98,.12-3.95,0-.28,0-.66-.02-1.13,1.69,.03,3.11,.04,4.26,.04,1.58,0,2.97-.01,4.16-.04-.04,.43-.07,.8-.08,1.09l-.12,2.6c-.03,.39-.04,.85-.04,1.39-1.38-.03-2.71-.04-3.99-.04s-2.74,.01-4.28,.04Z"/>
    <path class="cls-1" d="M297.2,23.95c-.25,1.18-.47,2.32-.65,3.44l-.46,2.56c-1.38,.31-2.47,.5-3.24,.59-.78,.08-1.53,.13-2.26,.13-1.19,0-2.25-.1-3.17-.3-.92-.2-1.69-.57-2.31-1.11-.62-.54-1.04-1.16-1.26-1.86-.22-.7-.34-1.44-.34-2.23,0-.14,0-.39,.02-.75,.01-.36,.06-1.15,.15-2.38l.46-7.26h-3.27c.07-.97,.13-2.24,.19-3.82l.06-1.95h3.48c.08-.64,.19-2.05,.31-4.22l3.59-.73c.66-.13,2.06-.45,4.2-.97-.1,1.83-.17,3.81-.21,5.92h4.79c-.11,2.91-.17,4.84-.17,5.77h-4.83l-.25,5.25c-.03,.78-.04,1.29-.04,1.51,0,.67,.07,1.23,.22,1.68,.15,.45,.41,.77,.78,.97,.37,.2,.78,.29,1.23,.29,.34,0,.69-.02,1.05-.07,.36-.05,1.01-.2,1.93-.45Z"/>
    <path class="cls-1" d="M301.86,14.79c.27-1.39,.43-2.34,.5-2.87,.07-.52,.18-1.35,.34-2.47,4.03-.88,7.5-1.32,10.39-1.32,1.65,0,3.16,.19,4.54,.56,1.37,.37,2.44,.97,3.21,1.8,.77,.83,1.16,2.01,1.16,3.55,0,.78-.1,2.55-.31,5.29-.21,2.74-.37,6.34-.48,10.79-1.37-.03-2.74-.04-4.1-.04s-2.72,.01-4.2,.04c.19-1.54,.4-4.72,.63-9.53-.53,.25-.95,.43-1.25,.55-.3,.11-.83,.28-1.58,.5-.75,.22-1.34,.41-1.77,.57-.43,.15-.8,.35-1.11,.59-.31,.24-.54,.48-.67,.73s-.2,.53-.2,.84c0,.48,.19,.88,.57,1.22s.98,.5,1.81,.5c.29,0,.61-.02,.94-.07,.34-.05,.8-.17,1.39-.37-.41,1.08-.89,2.65-1.45,4.72-1.2,.2-2.34,.29-3.42,.29-1.74,0-3.18-.24-4.34-.72-1.16-.48-2.04-1.26-2.67-2.34-.62-1.08-.93-2.16-.93-3.23,0-.66,.12-1.3,.35-1.93,.23-.63,.59-1.25,1.08-1.85,.49-.6,1.06-1.12,1.72-1.54,.66-.43,1.56-.83,2.7-1.21s2.58-.73,4.33-1.07c.73-.14,1.4-.29,2-.45,.61-.16,1.04-.3,1.3-.42,.26-.12,.47-.26,.63-.42,.16-.16,.28-.33,.35-.5,.07-.18,.11-.36,.11-.56,0-.53-.22-.94-.67-1.23-.45-.29-1.11-.43-1.97-.43-2.41,0-5.38,.68-8.92,2.04Z"/>
    <path class="cls-1" d="M325.88,30.12l.38-4.52,.81-15.7,.23-8.45c1.95,.03,3.41,.04,4.39,.04,1.28,0,2.68-.01,4.23-.04l-.48,6.45-.77,15.87-.17,6.34c-1.5-.01-2.85-.02-4.06-.02l-4.56,.02Z"/>
  </g>
  <g>
    <path d="M45.01,43.36h1.03l.83,4.29c.15,.85,.31,1.69,.46,2.54h.05c.17-.85,.36-1.7,.55-2.54l1.09-4.29h.91l1.09,4.29c.19,.83,.38,1.69,.57,2.54h.05c.15-.85,.29-1.7,.45-2.54l.83-4.29h.97l-1.63,7.87h-1.2l-1.19-4.73c-.14-.61-.26-1.19-.38-1.79h-.05c-.12,.61-.26,1.18-.39,1.79l-1.17,4.73h-1.19l-1.67-7.87Z"/>
    <path d="M56.48,48.33c0-1.9,1.28-3.07,2.62-3.07,1.49,0,2.33,1.07,2.33,2.74,0,.21-.02,.42-.05,.56h-3.93c.07,1.23,.83,2.04,1.94,2.04,.56,0,1.02-.18,1.45-.47l.35,.65c-.51,.33-1.13,.6-1.92,.6-1.55,0-2.79-1.14-2.79-3.05Zm4.08-.48c0-1.17-.53-1.8-1.44-1.8-.82,0-1.55,.66-1.67,1.8h3.11Z"/>
    <path d="M65.54,50.63h-.03l-.09,.6h-.79v-8.54h.99v2.34l-.03,1.05c.53-.46,1.18-.81,1.83-.81,1.51,0,2.32,1.17,2.32,2.97,0,1.99-1.19,3.15-2.52,3.15-.54,0-1.15-.28-1.66-.75Zm3.17-2.39c0-1.29-.44-2.15-1.54-2.15-.49,0-1.01,.27-1.56,.8v3.06c.51,.44,1.03,.61,1.42,.61,.96,0,1.68-.87,1.68-2.31Z"/>
    <path d="M76.78,47.31c0-2.54,1.5-4.09,3.49-4.09,.96,0,1.7,.46,2.17,.97l-.55,.65c-.41-.44-.93-.74-1.6-.74-1.49,0-2.48,1.22-2.48,3.18s.94,3.22,2.44,3.22c.75,0,1.32-.33,1.82-.88l.55,.63c-.62,.72-1.39,1.14-2.41,1.14-1.96,0-3.43-1.52-3.43-4.07Zm2.36,6.15c1-.06,1.31-.24,1.31-.59,0-.31-.24-.47-.93-.57l.52-1.09h.64l-.35,.8c.55,.13,.88,.36,.88,.85,0,.7-.71,1.04-1.97,1.1l-.1-.49Z"/>
    <path d="M85.33,48.33c0-1.95,1.27-3.07,2.7-3.07s2.7,1.12,2.7,3.07-1.27,3.05-2.7,3.05-2.7-1.12-2.7-3.05Zm.95-4.73c0-.33,.25-.6,.6-.6s.6,.26,.6,.6-.25,.6-.6,.6-.6-.26-.6-.6Zm3.43,4.73c0-1.34-.68-2.25-1.68-2.25s-1.68,.91-1.68,2.25,.68,2.23,1.68,2.23,1.68-.89,1.68-2.23Zm-1.12-4.73c0-.33,.25-.6,.6-.6s.6,.26,.6,.6-.25,.6-.6,.6-.6-.26-.6-.6Z"/>
    <path d="M93.35,50.71l3.07-4.5h-2.73v-.8h3.98v.53l-3.07,4.5h3.17v.8h-4.42v-.53Z"/>
    <path d="M100.62,49.1v-3.69h.99v3.57c0,1.09,.33,1.55,1.1,1.55,.6,0,1.01-.3,1.56-.98v-4.13h.99v5.83h-.81l-.08-.91h-.03c-.54,.64-1.12,1.06-1.92,1.06-1.23,0-1.78-.79-1.78-2.28Zm.61-5.5c0-.33,.25-.6,.6-.6s.6,.26,.6,.6-.25,.6-.6,.6-.6-.26-.6-.6Zm2.31,0c0-.33,.25-.6,.6-.6s.6,.26,.6,.6-.25,.6-.6,.6-.6-.26-.6-.6Z"/>
    <path d="M109,45.4h.81l.08,.85h.03c.51-.55,1.12-.99,1.81-.99,.89,0,1.37,.43,1.61,1.11,.61-.66,1.21-1.11,1.92-1.11,1.2,0,1.77,.79,1.77,2.28v3.69h-.99v-3.57c0-1.09-.34-1.55-1.08-1.55-.45,0-.92,.3-1.46,.9v4.22h-.99v-3.57c0-1.09-.34-1.55-1.08-1.55-.44,0-.92,.3-1.46,.9v4.22h-.99v-5.83Z"/>
    <path d="M120.71,50.06v-7.37h.99v7.45c0,.3,.13,.42,.27,.42,.06,0,.1,0,.22-.02l.13,.75c-.14,.05-.31,.09-.57,.09-.74,0-1.04-.47-1.04-1.31Z"/>
    <path d="M125.1,48.33c0-1.9,1.28-3.07,2.62-3.07,1.49,0,2.33,1.07,2.33,2.74,0,.21-.02,.42-.05,.56h-3.93c.07,1.23,.83,2.04,1.94,2.04,.56,0,1.02-.18,1.45-.47l.35,.65c-.51,.33-1.13,.6-1.92,.6-1.55,0-2.79-1.14-2.79-3.05Zm4.08-.48c0-1.17-.53-1.8-1.44-1.8-.82,0-1.55,.66-1.67,1.8h3.11Z"/>
    <path d="M133.25,45.4h.81l.08,1.06h.03c.41-.74,1-1.21,1.66-1.21,.26,0,.44,.03,.62,.12l-.18,.87c-.2-.06-.33-.1-.57-.1-.49,0-1.08,.35-1.47,1.34v3.74h-.99v-5.83Z"/>
    <path d="M138.99,43.57c0-.39,.3-.64,.68-.64s.68,.25,.68,.64-.3,.64-.68,.64-.68-.27-.68-.64Zm.18,1.84h.99v5.83h-.99v-5.83Z"/>
    <path d="M148.17,42.24h.7v11.99h-.7v-11.99Z"/>
    <path d="M156.97,43.36h1.97c2.42,0,3.72,1.41,3.72,3.91s-1.3,3.96-3.67,3.96h-2.01v-7.87Zm1.9,7.05c1.84,0,2.76-1.15,2.76-3.14s-.92-3.09-2.76-3.09h-.89v6.23h.89Z"/>
    <path d="M165.84,43.57c0-.39,.3-.64,.68-.64s.68,.25,.68,.64-.3,.64-.68,.64-.68-.27-.68-.64Zm.18,1.84h.99v5.83h-.99v-5.83Z"/>
    <path d="M169.28,53.68l.19-.75c.15,.05,.35,.1,.55,.1,.58,0,.72-.44,.72-1.15v-6.48h.99v6.49c0,1.19-.44,1.95-1.6,1.95-.35,0-.65-.07-.85-.15Zm1.29-10.12c0-.39,.3-.64,.68-.64s.68,.25,.68,.64-.3,.64-.68,.64-.68-.27-.68-.64Z"/>
    <path d="M175.28,43.57c0-.39,.3-.64,.68-.64s.68,.25,.68,.64-.3,.64-.68,.64-.68-.27-.68-.64Zm.18,1.84h.99v5.83h-.99v-5.83Z"/>
    <path d="M180.35,49.43v-3.22h-.87v-.75l.91-.06,.12-1.63h.82v1.63h1.58v.8h-1.58v3.24c0,.71,.23,1.13,.9,1.13,.21,0,.47-.08,.66-.16l.19,.74c-.33,.11-.72,.22-1.08,.22-1.24,0-1.66-.79-1.66-1.95Z"/>
    <path d="M185.38,49.72c0-1.27,1.1-1.9,3.58-2.18,0-.75-.25-1.47-1.2-1.47-.67,0-1.28,.32-1.74,.62l-.39-.68c.54-.35,1.35-.76,2.29-.76,1.42,0,2.02,.95,2.02,2.4v3.58h-.81l-.08-.7h-.03c-.56,.46-1.21,.84-1.93,.84-.98,0-1.71-.61-1.71-1.66Zm3.58,.09v-1.62c-1.95,.23-2.61,.71-2.61,1.46,0,.66,.45,.93,1.02,.93s1.03-.27,1.59-.77Z"/>
    <path d="M193.56,50.06v-7.37h.99v7.45c0,.3,.13,.42,.28,.42,.06,0,.11,0,.22-.02l.13,.75c-.14,.05-.31,.09-.57,.09-.74,0-1.04-.47-1.04-1.31Z"/>
    <path d="M201.56,43.36h1.06l1.27,4.26c.28,.93,.47,1.68,.76,2.6h.05c.29-.92,.49-1.67,.76-2.6l1.26-4.26h1.02l-2.5,7.87h-1.16l-2.52-7.87Z"/>
    <path d="M209.86,49.72c0-1.27,1.1-1.9,3.58-2.18,0-.75-.25-1.47-1.2-1.47-.67,0-1.28,.32-1.74,.62l-.39-.68c.54-.35,1.35-.76,2.29-.76,1.42,0,2.02,.95,2.02,2.4v3.58h-.81l-.08-.7h-.03c-.56,.46-1.21,.84-1.93,.84-.98,0-1.71-.61-1.71-1.66Zm3.58,.09v-1.62c-1.95,.23-2.61,.71-2.61,1.46,0,.66,.45,.93,1.02,.93s1.03-.27,1.59-.77Z"/>
    <path d="M218.04,45.4h.82l.08,1.06h.03c.41-.74,1-1.21,1.66-1.21,.26,0,.44,.03,.62,.12l-.18,.87c-.2-.06-.33-.1-.57-.1-.49,0-1.08,.35-1.48,1.34v3.74h-.99v-5.83Z"/>
    <path d="M223.97,50.06v-7.37h.99v7.45c0,.3,.13,.42,.28,.42,.06,0,.11,0,.22-.02l.13,.75c-.14,.05-.31,.09-.57,.09-.74,0-1.04-.47-1.04-1.31Z"/>
    <path d="M228.79,45.4h.99v5.83h-.99v-5.83Z"/>
    <path d="M233.5,42.69h.97v5.79h.03l2.49-3.07h1.09l-1.95,2.34,2.21,3.49h-1.08l-1.7-2.8-1.09,1.27v1.53h-.97v-8.54Z"/>
  </g>
</svg>