<?xml version="1.0" encoding="UTF-8"?>
<svg id="katman_1" data-name="katman 1" xmlns="http://www.w3.org/2000/svg" viewBox="0 0 335.91 58.24">
  <defs>
    <style>
      .cls-1 {
        fill: #ffa300;
      }

      .cls-2 {
        fill: #071f39;
      }
    </style>
  </defs>
  <g>
    <path class="cls-2" d="M45.4,28.79c.31-3.19,.52-5.75,.63-7.66,.17-2.86,.34-6.55,.51-11.09,.13-3.47,.19-5.96,.19-7.45V.13c1.64,.04,3.05,.06,4.24,.06s2.65-.03,4.51-.09c1.86-.06,3.61-.09,5.25-.09,1.87,0,3.52,.11,4.93,.34,1.41,.22,2.73,.69,3.96,1.39,1.22,.7,2.25,1.62,3.07,2.75s1.46,2.46,1.89,3.98c.43,1.52,.65,3.08,.65,4.69s-.17,3.1-.5,4.57c-.34,1.46-.81,2.78-1.41,3.96-.6,1.18-1.31,2.19-2.11,3.03-.8,.85-1.73,1.57-2.76,2.17-.77,.45-1.55,.8-2.33,1.05-.78,.25-1.85,.46-3.21,.61-1.51,.17-3.23,.25-5.14,.25l-8.48-.06c-.8,0-2.09,.02-3.88,.06Zm9.08-6.32c.77,.07,1.57,.1,2.41,.1,1.43,0,2.7-.13,3.82-.38,1.12-.25,2.1-.79,2.95-1.62,.85-.83,1.47-1.89,1.88-3.18,.41-1.29,.61-2.62,.61-3.98,0-1.67-.3-3.07-.9-4.21-.6-1.14-1.4-1.93-2.4-2.38-1-.45-2.36-.67-4.08-.67-1.01,0-2.2,.04-3.57,.13l-.71,16.19Z"/>
    <path class="cls-2" d="M76.45,20.56c.17-2.04,.27-3.98,.31-5.84,1.99,.06,3.86,.08,5.63,.08s3.67-.03,5.65-.08c-.17,1.81-.27,3.76-.31,5.84-1.99-.04-3.87-.06-5.65-.06s-3.65,.02-5.63,.06Z"/>
    <path class="cls-2" d="M90.18,28.79c.29-2.84,.5-5.12,.61-6.84,.17-2.55,.33-6.05,.48-10.51,.15-4.46,.23-7.46,.23-9V.13c4.21,.03,8.13,.04,11.76,.04s7.17-.01,10.54-.04c-.22,3.22-.34,5.33-.34,6.32l-1.83-.06-1.47-.02-1.47-.02h-4.14c-.48,0-1.87,.01-4.18,.04l-.19,4.89,3.04,.06h3.4c.98,0,2.48-.02,4.49-.06-.15,2.65-.23,4.72-.23,6.21-2.25-.07-3.92-.1-5.01-.1-1.85,0-3.86,.04-6.04,.1l-.22,7.56-.02,2.81v.92l-4.52-.04c-.35,0-1.99,.01-4.92,.04Z"/>
    <path class="cls-2" d="M116.28,28.79c.35-3.3,.6-6,.76-8.08,.3-3.81,.52-7.59,.67-11.35,.15-3.76,.22-6.83,.22-9.23,1.9,.03,3.59,.04,5.06,.04,.99,0,2.42-.01,4.28-.04l-.51,7.6-.63,11.88-.08,2.92c2.41,.04,3.98,.06,4.71,.06,3.68,0,6.47-.05,8.36-.15l-.46,6.34c-3.68-.03-7.19-.04-10.52-.04-4.51,0-8.45,.01-11.84,.04Z"/>
    <path class="cls-2" d="M141.66,28.79c.35-3.61,.61-6.63,.77-9.07,.16-2.44,.32-5.67,.48-9.71,.16-4.04,.24-6.71,.24-8.03l-.02-1.85c3.3,.03,7.3,.04,11.99,.04,4.32,0,8.14-.01,11.44-.04l-.04,.69c-.01,.17-.05,.77-.1,1.82l-.13,2.28c-.03,.49-.04,.98-.04,1.49-2.7-.11-4.97-.17-6.8-.17-2.02,0-3.38,0-4.08,.01-.71,0-1.81,.04-3.31,.09l-.25,4.83c1.65,.04,3.58,.06,5.78,.06,.78,0,2.87-.05,6.26-.15-.14,1.79-.27,3.93-.4,6.4-2.42-.03-4.28-.04-5.58-.04-1.93,0-4.09,.05-6.48,.15l-.25,5.1h2.41c.71,0,2.19-.02,4.43-.06l4.34-.1c.64-.01,1.72-.07,3.23-.17-.17,2.07-.31,4.21-.42,6.42-3.42-.03-7.16-.04-11.23-.04l-9.24,.02-2.98,.02Z"/>
    <path class="cls-2" d="M165.98,28.79c1.64-2.07,3.63-4.67,5.97-7.81,2.34-3.14,4.16-5.63,5.45-7.47l-2.48-4.18c-.46-.76-1.13-1.81-2-3.17l-2.1-3.25c-.52-.81-1.1-1.74-1.74-2.77,1.81,.03,3.65,.04,5.54,.04,1.5,0,3.1-.01,4.81-.04,.62,1.22,1.34,2.54,2.17,3.96,.83,1.42,1.49,2.66,1.98,3.71,.56-.97,1.32-2.17,2.29-3.6,.97-1.44,1.81-2.79,2.54-4.06,1.48,.03,3.1,.04,4.85,.04,1.13,0,2.74-.01,4.83-.04-1.01,1.44-2.51,3.49-4.49,6.13-1.99,2.65-3.87,5.26-5.65,7.83,2.27,3.86,5.35,8.76,9.24,14.7-2.21-.03-3.87-.04-4.98-.04-1.85,0-3.67,.01-5.48,.04-.55-1.12-1.31-2.54-2.3-4.25-.99-1.71-1.84-3.29-2.57-4.73-.55,.98-1.44,2.36-2.69,4.14-1.25,1.78-2.34,3.39-3.3,4.85-2.04-.03-3.66-.04-4.85-.04-1.32,0-3,.01-5.06,.04Z"/>
  </g>
  <g>
    <path class="cls-1" d="M208.3,30.12c.31-3.19,.52-5.75,.63-7.66,.17-2.86,.34-6.55,.51-11.09,.13-3.47,.19-5.96,.19-7.45V1.46c1.64,.04,3.05,.06,4.24,.06s2.65-.03,4.51-.09c1.86-.06,3.61-.09,5.25-.09,1.88,0,3.52,.11,4.93,.34,1.41,.22,2.73,.69,3.96,1.39,1.22,.7,2.25,1.62,3.07,2.75,.83,1.13,1.46,2.46,1.89,3.98,.43,1.52,.65,3.08,.65,4.69s-.17,3.1-.5,4.57c-.34,1.46-.8,2.78-1.41,3.96-.6,1.18-1.31,2.19-2.11,3.03-.8,.85-1.73,1.57-2.76,2.17-.77,.45-1.55,.8-2.33,1.05s-1.85,.46-3.21,.61c-1.51,.17-3.23,.25-5.14,.25l-8.48-.06c-.8,0-2.09,.02-3.88,.06Zm9.08-6.32c.77,.07,1.57,.1,2.41,.1,1.43,0,2.7-.13,3.82-.38,1.12-.25,2.1-.79,2.95-1.62,.85-.83,1.47-1.89,1.88-3.18,.41-1.29,.61-2.62,.61-3.98,0-1.67-.3-3.07-.9-4.21-.6-1.14-1.4-1.93-2.4-2.38-1-.45-2.36-.67-4.08-.67-1.01,0-2.2,.04-3.57,.13l-.71,16.19Z"/>
    <path class="cls-1" d="M241.14,30.12c.19-1.71,.34-3.11,.44-4.22,.1-1.11,.19-2.52,.28-4.24,.09-1.72,.17-3.62,.24-5.71,.07-2.09,.12-4.51,.17-7.26,1.82,.03,3.28,.04,4.37,.04,.99,0,2.42-.01,4.29-.04-.24,2.65-.41,4.97-.52,6.97-.11,2-.17,4.12-.2,6.36-.06,3.98-.08,6.68-.08,8.1-1.66-.03-3.1-.04-4.3-.04s-2.75,.01-4.68,.04Zm1.32-24.12c.08-1.67,.13-2.98,.13-3.95,0-.28,0-.66-.02-1.13,1.69,.03,3.11,.04,4.26,.04,1.58,0,2.97-.01,4.16-.04-.04,.43-.07,.8-.08,1.09l-.13,2.6c-.03,.39-.04,.85-.04,1.39-1.39-.03-2.72-.04-3.99-.04s-2.74,.01-4.28,.04Z"/>
    <path class="cls-1" d="M264.15,8.68l-.44,10.69-.21,9.91c-.03,1.37-.04,2.18-.04,2.41,0,1.61-.12,2.98-.37,4.1-.24,1.13-.73,2.03-1.47,2.71-.74,.68-1.65,1.16-2.73,1.43-1.08,.27-2.32,.41-3.71,.41-.83,0-1.84-.05-3.04-.14-1.2-.1-2.53-.27-4-.53-.08-1.53-.27-3.61-.57-6.24,1.25,.38,2.34,.57,3.3,.57,.77,0,1.46-.15,2.08-.44,.49-.22,.88-.52,1.16-.88,.28-.36,.5-.85,.65-1.47,.14-.55,.26-1.48,.36-2.79,.17-2.58,.3-5.72,.4-9.43,.07-3.15,.1-5.87,.1-8.17v-2.14c1.67,.03,3.11,.04,4.33,.04,1.29,0,2.69-.01,4.2-.04Zm-8.27-2.77c.14-2.04,.22-3.7,.23-5,1.15,.03,2.53,.04,4.16,.04,1.46,0,2.83-.01,4.12-.04-.14,2.04-.23,3.7-.27,5-1.37-.04-2.74-.06-4.12-.06s-2.79,.02-4.12,.06Z"/>
    <path class="cls-1" d="M268.03,30.12c.2-1.71,.34-3.11,.44-4.22,.1-1.11,.19-2.52,.28-4.24,.09-1.72,.17-3.62,.24-5.71,.07-2.09,.12-4.51,.17-7.26,1.82,.03,3.28,.04,4.37,.04,.99,0,2.42-.01,4.29-.04-.24,2.65-.41,4.97-.52,6.97-.11,2-.17,4.12-.2,6.36-.06,3.98-.08,6.68-.08,8.1-1.66-.03-3.1-.04-4.3-.04s-2.75,.01-4.68,.04Zm1.32-24.12c.08-1.67,.12-2.98,.12-3.95,0-.28,0-.66-.02-1.13,1.69,.03,3.11,.04,4.26,.04,1.58,0,2.97-.01,4.16-.04-.04,.43-.07,.8-.08,1.09l-.12,2.6c-.03,.39-.04,.85-.04,1.39-1.38-.03-2.71-.04-3.99-.04s-2.74,.01-4.28,.04Z"/>
    <path class="cls-1" d="M297.2,23.95c-.25,1.18-.47,2.32-.65,3.44l-.46,2.56c-1.38,.31-2.47,.5-3.24,.59-.78,.08-1.53,.13-2.26,.13-1.19,0-2.25-.1-3.17-.3-.92-.2-1.69-.57-2.31-1.11-.62-.54-1.04-1.16-1.26-1.86-.22-.7-.34-1.44-.34-2.23,0-.14,0-.39,.02-.75,.01-.36,.06-1.15,.15-2.38l.46-7.26h-3.27c.07-.97,.13-2.24,.19-3.82l.06-1.95h3.48c.08-.64,.19-2.05,.31-4.22l3.59-.73c.66-.13,2.06-.45,4.2-.97-.1,1.83-.17,3.81-.21,5.92h4.79c-.11,2.91-.17,4.84-.17,5.77h-4.83l-.25,5.25c-.03,.78-.04,1.29-.04,1.51,0,.67,.07,1.23,.22,1.68,.15,.45,.41,.77,.78,.97,.37,.2,.78,.29,1.23,.29,.34,0,.69-.02,1.05-.07,.36-.05,1.01-.2,1.93-.45Z"/>
    <path class="cls-1" d="M301.86,14.79c.27-1.39,.43-2.34,.5-2.87,.07-.52,.18-1.35,.34-2.47,4.03-.88,7.5-1.32,10.39-1.32,1.65,0,3.16,.19,4.54,.56,1.37,.37,2.44,.97,3.21,1.8,.77,.83,1.16,2.01,1.16,3.55,0,.78-.1,2.55-.31,5.29-.21,2.74-.37,6.34-.48,10.79-1.37-.03-2.74-.04-4.1-.04s-2.72,.01-4.2,.04c.19-1.54,.4-4.72,.63-9.53-.53,.25-.95,.43-1.25,.55-.3,.11-.83,.28-1.58,.5-.75,.22-1.34,.41-1.77,.57-.43,.15-.8,.35-1.11,.59-.31,.24-.54,.48-.67,.73s-.2,.53-.2,.84c0,.48,.19,.88,.57,1.22s.98,.5,1.81,.5c.29,0,.61-.02,.94-.07,.34-.05,.8-.17,1.39-.37-.41,1.08-.89,2.65-1.45,4.72-1.2,.2-2.34,.29-3.42,.29-1.74,0-3.18-.24-4.34-.72-1.16-.48-2.04-1.26-2.67-2.34-.62-1.08-.93-2.16-.93-3.23,0-.66,.12-1.3,.35-1.93,.23-.63,.59-1.25,1.08-1.85,.49-.6,1.06-1.12,1.72-1.54,.66-.43,1.56-.83,2.7-1.21s2.58-.73,4.33-1.07c.73-.14,1.4-.29,2-.45,.61-.16,1.04-.3,1.3-.42,.26-.12,.47-.26,.63-.42,.16-.16,.28-.33,.35-.5,.07-.18,.11-.36,.11-.56,0-.53-.22-.94-.67-1.23-.45-.29-1.11-.43-1.97-.43-2.41,0-5.38,.68-8.92,2.04Z"/>
    <path class="cls-1" d="M325.88,30.12l.38-4.52,.81-15.7,.23-8.45c1.95,.03,3.41,.04,4.39,.04,1.28,0,2.68-.01,4.23-.04l-.48,6.45-.77,15.87-.17,6.34c-1.5-.01-2.85-.02-4.06-.02l-4.56,.02Z"/>
  </g>
  <g>
    <path d="M45.72,45.54h1.21l.96,5c.18,.99,.36,1.98,.54,2.96h.06c.2-.99,.42-1.98,.65-2.96l1.28-5h1.06l1.28,5c.22,.97,.44,1.97,.66,2.96h.06c.18-.99,.34-1.99,.52-2.96l.96-5h1.13l-1.9,9.19h-1.41l-1.39-5.53c-.16-.72-.31-1.39-.44-2.09h-.06c-.14,.71-.3,1.38-.46,2.09l-1.36,5.53h-1.39l-1.95-9.19Z"/>
    <path d="M59.11,51.34c0-2.22,1.49-3.58,3.06-3.58,1.74,0,2.72,1.25,2.72,3.19,0,.24-.02,.49-.05,.65h-4.59c.08,1.44,.96,2.38,2.26,2.38,.65,0,1.19-.21,1.69-.54l.41,.76c-.6,.39-1.32,.71-2.25,.71-1.81,0-3.26-1.33-3.26-3.56Zm4.76-.56c0-1.36-.61-2.11-1.68-2.11-.96,0-1.81,.77-1.95,2.11h3.63Z"/>
    <path d="M69.69,54.03h-.04l-.11,.7h-.92v-9.98h1.15v2.73l-.04,1.22c.62-.54,1.38-.95,2.14-.95,1.76,0,2.7,1.37,2.7,3.46,0,2.33-1.39,3.68-2.95,3.68-.63,0-1.34-.33-1.94-.87Zm3.7-2.79c0-1.5-.51-2.51-1.79-2.51-.58,0-1.18,.32-1.82,.93v3.57c.6,.52,1.21,.71,1.66,.71,1.13,0,1.96-1.02,1.96-2.7Z"/>
    <path d="M82.79,50.15c0-2.96,1.75-4.77,4.08-4.77,1.12,0,1.99,.54,2.53,1.13l-.64,.76c-.48-.52-1.09-.87-1.87-.87-1.74,0-2.89,1.42-2.89,3.71s1.1,3.76,2.85,3.76c.88,0,1.54-.38,2.13-1.03l.64,.73c-.73,.84-1.63,1.33-2.82,1.33-2.29,0-4.01-1.77-4.01-4.76Zm2.76,7.19c1.17-.07,1.52-.28,1.52-.69,0-.36-.28-.55-1.08-.67l.61-1.28h.75l-.41,.93c.64,.15,1.02,.42,1.02,.99,0,.81-.83,1.21-2.3,1.28l-.11-.57Z"/>
    <path d="M92.77,51.34c0-2.27,1.49-3.58,3.16-3.58s3.15,1.31,3.15,3.58-1.49,3.56-3.15,3.56-3.16-1.31-3.16-3.56Zm1.11-5.53c0-.39,.29-.7,.7-.7s.7,.3,.7,.7-.29,.7-.7,.7-.7-.3-.7-.7Zm4.01,5.53c0-1.56-.79-2.62-1.96-2.62s-1.96,1.06-1.96,2.62,.79,2.6,1.96,2.6,1.96-1.04,1.96-2.6Zm-1.31-5.53c0-.39,.29-.7,.7-.7s.7,.3,.7,.7-.29,.7-.7,.7-.7-.3-.7-.7Z"/>
    <path d="M102.12,54.12l3.58-5.25h-3.19v-.94h4.64v.62l-3.58,5.25h3.7v.94h-5.16v-.62Z"/>
    <path d="M110.61,52.24v-4.31h1.15v4.17c0,1.27,.38,1.81,1.28,1.81,.7,0,1.18-.35,1.82-1.15v-4.83h1.15v6.81h-.95l-.1-1.07h-.04c-.63,.74-1.31,1.23-2.25,1.23-1.43,0-2.08-.93-2.08-2.66Zm.71-6.43c0-.39,.29-.7,.7-.7s.7,.3,.7,.7-.29,.7-.7,.7-.7-.3-.7-.7Zm2.7,0c0-.39,.29-.7,.7-.7s.7,.3,.7,.7-.29,.7-.7,.7-.7-.3-.7-.7Z"/>
    <path d="M120.38,47.93h.95l.1,.99h.04c.6-.64,1.31-1.16,2.12-1.16,1.04,0,1.6,.5,1.88,1.3,.71-.77,1.42-1.3,2.25-1.3,1.4,0,2.07,.93,2.07,2.66v4.31h-1.15v-4.17c0-1.27-.4-1.81-1.27-1.81-.53,0-1.08,.35-1.71,1.05v4.93h-1.15v-4.17c0-1.27-.4-1.81-1.27-1.81-.51,0-1.08,.35-1.71,1.05v4.93h-1.15v-6.81Z"/>
    <path d="M134.04,53.37v-8.61h1.15v8.7c0,.35,.15,.49,.32,.49,.07,0,.12,0,.25-.03l.16,.88c-.16,.06-.36,.11-.66,.11-.86,0-1.22-.55-1.22-1.54Z"/>
    <path d="M139.16,51.34c0-2.22,1.49-3.58,3.06-3.58,1.74,0,2.72,1.25,2.72,3.19,0,.24-.02,.49-.05,.65h-4.58c.08,1.44,.96,2.38,2.26,2.38,.65,0,1.19-.21,1.69-.54l.41,.76c-.6,.39-1.32,.71-2.25,.71-1.81,0-3.26-1.33-3.26-3.56Zm4.76-.56c0-1.36-.61-2.11-1.68-2.11-.96,0-1.81,.77-1.95,2.11h3.63Z"/>
    <path d="M148.67,47.93h.95l.1,1.24h.04c.47-.86,1.17-1.41,1.94-1.41,.3,0,.51,.04,.73,.14l-.21,1.01c-.23-.07-.39-.11-.66-.11-.58,0-1.26,.41-1.72,1.57v4.37h-1.15v-6.81Z"/>
    <path d="M155.37,45.78c0-.45,.35-.74,.8-.74s.8,.29,.8,.74-.35,.74-.8,.74-.8-.31-.8-.74Zm.21,2.14h1.15v6.81h-1.15v-6.81Z"/>
    <path d="M166.08,44.23h.81v14.01h-.81v-14.01Z"/>
    <path d="M176.34,45.54h2.3c2.83,0,4.34,1.64,4.34,4.56s-1.52,4.63-4.29,4.63h-2.35v-9.19Zm2.21,8.23c2.15,0,3.22-1.35,3.22-3.67s-1.07-3.6-3.22-3.6h-1.04v7.28h1.04Z"/>
    <path d="M186.69,45.78c0-.45,.35-.74,.8-.74s.8,.29,.8,.74-.35,.74-.8,.74-.8-.31-.8-.74Zm.21,2.14h1.15v6.81h-1.15v-6.81Z"/>
    <path d="M190.7,57.6l.23-.88c.18,.06,.41,.12,.65,.12,.68,0,.84-.51,.84-1.34v-7.57h1.15v7.58c0,1.39-.51,2.27-1.87,2.27-.41,0-.76-.08-1-.18Zm1.5-11.82c0-.45,.35-.74,.8-.74s.8,.29,.8,.74-.35,.74-.8,.74-.8-.31-.8-.74Z"/>
    <path d="M197.71,45.78c0-.45,.35-.74,.8-.74s.8,.29,.8,.74-.35,.74-.8,.74-.8-.31-.8-.74Zm.21,2.14h1.15v6.81h-1.15v-6.81Z"/>
    <path d="M203.62,52.63v-3.77h-1.01v-.87l1.06-.07,.14-1.91h.96v1.91h1.84v.94h-1.84v3.79c0,.83,.27,1.31,1.05,1.31,.24,0,.55-.09,.78-.18l.22,.87c-.38,.13-.84,.25-1.26,.25-1.45,0-1.94-.92-1.94-2.27Z"/>
    <path d="M209.5,52.97c0-1.48,1.28-2.23,4.18-2.54,0-.88-.29-1.72-1.41-1.72-.79,0-1.5,.37-2.03,.73l-.45-.79c.63-.41,1.58-.89,2.67-.89,1.66,0,2.37,1.1,2.37,2.8v4.18h-.95l-.1-.81h-.04c-.65,.54-1.41,.98-2.25,.98-1.14,0-1.99-.71-1.99-1.94Zm4.18,.11v-1.89c-2.28,.27-3.05,.83-3.05,1.7,0,.77,.53,1.09,1.19,1.09s1.2-.32,1.86-.9Z"/>
    <path d="M219.03,53.37v-8.61h1.15v8.7c0,.35,.15,.49,.32,.49,.07,0,.12,0,.25-.03l.16,.88c-.16,.06-.36,.11-.66,.11-.86,0-1.22-.55-1.22-1.54Z"/>
    <path d="M228.37,45.54h1.24l1.48,4.97c.32,1.08,.54,1.96,.88,3.04h.06c.34-1.08,.57-1.95,.88-3.04l1.47-4.97h1.19l-2.92,9.19h-1.36l-2.94-9.19Z"/>
    <path d="M238.06,52.97c0-1.48,1.28-2.23,4.18-2.54,0-.88-.29-1.72-1.41-1.72-.79,0-1.5,.37-2.03,.73l-.45-.79c.63-.41,1.58-.89,2.67-.89,1.66,0,2.37,1.1,2.37,2.8v4.18h-.95l-.1-.81h-.04c-.65,.54-1.41,.98-2.25,.98-1.14,0-2-.71-2-1.94Zm4.18,.11v-1.89c-2.28,.27-3.05,.83-3.05,1.7,0,.77,.53,1.09,1.19,1.09s1.2-.32,1.86-.9Z"/>
    <path d="M247.59,47.93h.95l.1,1.24h.04c.47-.86,1.17-1.41,1.94-1.41,.3,0,.51,.04,.73,.14l-.22,1.01c-.23-.07-.39-.11-.66-.11-.58,0-1.26,.41-1.72,1.57v4.37h-1.15v-6.81Z"/>
    <path d="M254.51,53.37v-8.61h1.15v8.7c0,.35,.15,.49,.32,.49,.07,0,.12,0,.25-.03l.16,.88c-.16,.06-.36,.11-.66,.11-.86,0-1.22-.55-1.22-1.54Z"/>
    <path d="M260.14,47.93h1.15v6.81h-1.15v-6.81Z"/>
    <path d="M265.64,44.75h1.13v6.76h.04l2.91-3.59h1.28l-2.28,2.74,2.58,4.07h-1.26l-1.99-3.27-1.28,1.49v1.79h-1.13v-9.98Z"/>
  </g>
</svg>