<?xml version="1.0" encoding="UTF-8"?>
<svg id="katman_1" data-name="katman 1" xmlns="http://www.w3.org/2000/svg" viewBox="0 0 289.82 43.3">
  <defs>
    <style>
      .cls-1 {
        fill: #ffa300;
      }

      .cls-2 {
        fill: #071f39;
      }
    </style>
  </defs>
  <g>
    <path class="cls-2" d="M45.05,25.12c.26-2.67,.44-4.81,.53-6.42,.14-2.39,.28-5.48,.42-9.28,.11-2.91,.16-4.99,.16-6.24V1.12c1.37,.04,2.55,.05,3.55,.05s2.22-.03,3.78-.08c1.56-.05,3.02-.08,4.39-.08,1.57,0,2.95,.09,4.13,.28,1.18,.19,2.29,.57,3.31,1.16s1.88,1.35,2.57,2.3c.69,.95,1.22,2.06,1.58,3.33s.54,2.58,.54,3.93-.14,2.6-.42,3.82-.67,2.33-1.18,3.31-1.09,1.83-1.77,2.54-1.44,1.32-2.31,1.82c-.64,.38-1.29,.67-1.95,.88s-1.55,.38-2.69,.51c-1.27,.14-2.7,.21-4.31,.21l-7.1-.05c-.67,0-1.75,.02-3.25,.05Zm7.6-5.29c.64,.06,1.32,.09,2.02,.09,1.19,0,2.26-.11,3.2-.32,.94-.21,1.76-.66,2.47-1.35,.71-.69,1.23-1.58,1.57-2.66,.34-1.08,.51-2.19,.51-3.33,0-1.39-.25-2.57-.76-3.52s-1.17-1.62-2.01-2-1.98-.56-3.42-.56c-.84,0-1.84,.04-2.99,.11l-.59,13.55Z"/>
    <path class="cls-2" d="M71.05,18.23c.14-1.71,.23-3.33,.26-4.89,1.66,.05,3.23,.07,4.71,.07s3.08-.02,4.73-.07c-.14,1.52-.23,3.15-.26,4.89-1.66-.04-3.24-.05-4.73-.05s-3.06,.02-4.71,.05Z"/>
    <path class="cls-2" d="M82.54,25.12c.25-2.38,.42-4.29,.51-5.73,.14-2.13,.27-5.07,.4-8.8s.19-6.24,.19-7.53V1.12c3.53,.02,6.81,.04,9.84,.04s6-.01,8.82-.04c-.19,2.7-.28,4.46-.28,5.29l-1.53-.05-1.23-.02-1.23-.02h-3.46c-.4,0-1.56,.01-3.5,.04l-.16,4.1,2.55,.05h2.85c.82,0,2.07-.02,3.76-.05-.13,2.21-.19,3.95-.19,5.2-1.88-.06-3.28-.09-4.19-.09-1.54,0-3.23,.03-5.05,.09l-.18,6.33-.02,2.36v.77l-3.78-.04c-.29,0-1.67,.01-4.12,.04Z"/>
    <path class="cls-2" d="M104.39,25.12c.29-2.77,.51-5.02,.64-6.77,.25-3.19,.43-6.35,.56-9.5,.12-3.15,.19-5.72,.19-7.73,1.59,.02,3,.04,4.23,.04,.83,0,2.03-.01,3.58-.04l-.42,6.36-.53,9.95-.07,2.44c2.02,.04,3.33,.05,3.94,.05,3.08,0,5.42-.04,7-.12l-.39,5.31c-3.08-.02-6.02-.04-8.81-.04-3.77,0-7.08,.01-9.91,.04Z"/>
    <path class="cls-2" d="M125.64,25.12c.29-3.02,.51-5.55,.64-7.59,.13-2.04,.27-4.75,.41-8.13,.13-3.38,.2-5.62,.2-6.72l-.02-1.55c2.77,.02,6.11,.04,10.04,.04,3.62,0,6.81-.01,9.58-.04l-.04,.58c-.01,.14-.04,.65-.09,1.52l-.11,1.91c-.02,.41-.04,.82-.04,1.24-2.26-.09-4.16-.14-5.7-.14-1.69,0-2.83,0-3.42,0s-1.51,.03-2.77,.08l-.21,4.04c1.38,.04,3,.05,4.84,.05,.66,0,2.4-.04,5.24-.12-.12,1.5-.23,3.29-.33,5.36-2.03-.02-3.58-.04-4.67-.04-1.62,0-3.43,.04-5.43,.12l-.21,4.27h2.02c.6,0,1.83-.02,3.71-.05l3.64-.09c.54-.01,1.44-.06,2.71-.14-.14,1.73-.26,3.53-.35,5.38-2.86-.02-5.99-.04-9.4-.04l-7.73,.02-2.5,.02Z"/>
    <path class="cls-2" d="M146,25.12c1.37-1.73,3.04-3.91,5-6.54s3.48-4.71,4.56-6.26l-2.07-3.5c-.39-.63-.94-1.52-1.67-2.65l-1.76-2.72c-.43-.68-.92-1.45-1.46-2.32,1.51,.02,3.06,.04,4.64,.04,1.25,0,2.6-.01,4.03-.04,.52,1.02,1.12,2.12,1.82,3.31s1.25,2.22,1.66,3.1c.47-.81,1.11-1.81,1.92-3.01s1.52-2.33,2.13-3.4c1.24,.02,2.6,.04,4.06,.04,.95,0,2.3-.01,4.04-.04-.84,1.21-2.1,2.92-3.76,5.13s-3.24,4.4-4.73,6.56c1.9,3.23,4.48,7.34,7.73,12.3-1.85-.02-3.24-.04-4.17-.04-1.55,0-3.08,.01-4.59,.04-.46-.94-1.1-2.12-1.92-3.56s-1.54-2.76-2.15-3.96c-.46,.82-1.21,1.97-2.25,3.46s-1.96,2.84-2.76,4.06c-1.71-.02-3.06-.04-4.06-.04-1.1,0-2.51,.01-4.24,.04Z"/>
  </g>
  <g>
    <path class="cls-1" d="M182.98,24.45c.26-2.67,.44-4.81,.53-6.42,.14-2.39,.28-5.48,.42-9.28,.11-2.91,.16-4.99,.16-6.24V.46c1.37,.04,2.55,.05,3.55,.05s2.22-.03,3.78-.08,3.02-.08,4.39-.08c1.57,0,2.95,.09,4.13,.28,1.18,.19,2.29,.57,3.31,1.16,1.02,.59,1.88,1.35,2.57,2.3,.69,.95,1.22,2.06,1.58,3.33s.54,2.58,.54,3.93-.14,2.6-.42,3.82-.67,2.33-1.18,3.31-1.09,1.83-1.77,2.54-1.44,1.32-2.31,1.82c-.64,.38-1.29,.67-1.95,.88s-1.55,.38-2.69,.51c-1.27,.14-2.7,.21-4.31,.21l-7.1-.05c-.67,0-1.75,.02-3.25,.05Zm7.6-5.29c.64,.06,1.32,.09,2.02,.09,1.19,0,2.26-.11,3.2-.32,.94-.21,1.76-.66,2.47-1.35,.71-.69,1.23-1.58,1.57-2.66,.34-1.08,.51-2.19,.51-3.33,0-1.39-.25-2.57-.76-3.52s-1.17-1.62-2.01-2-1.98-.56-3.42-.56c-.84,0-1.84,.04-2.99,.11l-.59,13.55Z"/>
    <path class="cls-1" d="M210.47,24.45c.16-1.43,.29-2.61,.37-3.53s.16-2.11,.24-3.55c.08-1.44,.14-3.04,.2-4.78,.06-1.75,.1-3.77,.14-6.08,1.52,.02,2.74,.04,3.66,.04,.83,0,2.03-.01,3.59-.04-.2,2.21-.35,4.16-.44,5.84s-.14,3.45-.17,5.33c-.05,3.33-.07,5.59-.07,6.79-1.39-.02-2.59-.04-3.6-.04s-2.3,.01-3.92,.04Zm1.11-20.2c.07-1.39,.11-2.5,.11-3.3,0-.23,0-.55-.02-.95,1.42,.02,2.61,.04,3.57,.04,1.32,0,2.48-.01,3.48-.04-.04,.36-.06,.67-.07,.91l-.11,2.18c-.02,.33-.04,.71-.04,1.16-1.16-.02-2.27-.04-3.34-.04s-2.3,.01-3.59,.04Z"/>
    <path class="cls-1" d="M229.74,6.5l-.37,8.95-.18,8.3c-.02,1.15-.03,1.82-.03,2.02,0,1.35-.1,2.49-.31,3.44s-.62,1.7-1.23,2.27-1.38,.97-2.29,1.2-1.94,.34-3.1,.34c-.69,0-1.54-.04-2.54-.12-1-.08-2.12-.23-3.35-.44-.07-1.28-.23-3.02-.47-5.22,1.04,.32,1.96,.47,2.76,.47,.64,0,1.22-.12,1.74-.37,.41-.19,.73-.43,.97-.74s.42-.71,.54-1.23c.12-.46,.22-1.24,.3-2.34,.14-2.16,.25-4.79,.33-7.89,.06-2.64,.09-4.92,.09-6.84v-1.79c1.4,.02,2.6,.04,3.62,.04,1.08,0,2.25-.01,3.52-.04Zm-6.93-2.32c.12-1.7,.18-3.1,.19-4.18,.96,.02,2.12,.03,3.48,.03,1.22,0,2.37-.01,3.45-.03-.12,1.7-.19,3.1-.23,4.18-1.15-.03-2.3-.05-3.45-.05s-2.33,.02-3.45,.05Z"/>
    <path class="cls-1" d="M232.99,24.45c.16-1.43,.29-2.61,.37-3.53s.16-2.11,.24-3.55c.08-1.44,.14-3.04,.2-4.78,.06-1.75,.1-3.77,.14-6.08,1.52,.02,2.74,.04,3.66,.04,.83,0,2.03-.01,3.59-.04-.2,2.21-.35,4.16-.44,5.84s-.14,3.45-.17,5.33c-.05,3.33-.07,5.59-.07,6.79-1.39-.02-2.59-.04-3.6-.04s-2.3,.01-3.92,.04Zm1.11-20.2c.07-1.39,.11-2.5,.11-3.3,0-.23,0-.55-.02-.95,1.42,.02,2.61,.04,3.57,.04,1.32,0,2.48-.01,3.48-.04-.04,.36-.06,.67-.07,.91l-.11,2.18c-.02,.33-.04,.71-.04,1.16-1.16-.02-2.27-.04-3.34-.04s-2.3,.01-3.59,.04Z"/>
    <path class="cls-1" d="M257.41,19.28c-.21,.98-.39,1.95-.54,2.88l-.39,2.14c-1.16,.26-2.07,.42-2.72,.49s-1.28,.11-1.89,.11c-1,0-1.88-.08-2.65-.25s-1.42-.48-1.93-.93-.87-.97-1.05-1.56-.28-1.21-.28-1.86c0-.12,0-.33,.02-.62s.05-.96,.12-2l.38-6.08h-2.74c.06-.81,.11-1.88,.16-3.2l.05-1.63h2.91c.07-.54,.16-1.72,.26-3.53l3.01-.62c.55-.11,1.72-.38,3.52-.81-.08,1.54-.14,3.19-.18,4.96h4.01c-.09,2.44-.14,4.05-.14,4.83h-4.04l-.21,4.39c-.02,.66-.04,1.08-.04,1.27,0,.56,.06,1.03,.18,1.41s.34,.64,.65,.81,.65,.25,1.03,.25c.28,0,.57-.02,.88-.06s.84-.17,1.62-.38Z"/>
    <path class="cls-1" d="M261.31,11.62c.22-1.16,.36-1.96,.42-2.4s.15-1.13,.28-2.07c3.38-.74,6.28-1.11,8.7-1.11,1.38,0,2.65,.16,3.8,.47,1.15,.31,2.05,.81,2.69,1.5s.97,1.68,.97,2.97c0,.66-.09,2.13-.26,4.43-.18,2.3-.31,5.31-.4,9.04-1.15-.02-2.29-.04-3.43-.04s-2.27,.01-3.52,.04c.16-1.29,.34-3.95,.53-7.98-.44,.21-.79,.36-1.04,.46-.25,.09-.69,.23-1.32,.42s-1.12,.35-1.48,.47-.67,.29-.93,.49-.45,.4-.56,.62c-.11,.21-.17,.45-.17,.7,0,.4,.16,.74,.47,1.02s.82,.42,1.51,.42c.25,0,.51-.02,.79-.06s.67-.14,1.16-.31c-.34,.9-.74,2.22-1.21,3.96-1.01,.16-1.96,.25-2.87,.25-1.45,0-2.66-.2-3.63-.61s-1.71-1.06-2.23-1.96-.78-1.8-.78-2.71c0-.55,.1-1.09,.29-1.62s.5-1.04,.9-1.55c.41-.5,.89-.93,1.44-1.29,.55-.36,1.3-.69,2.26-1.01s2.16-.62,3.63-.9c.61-.12,1.17-.24,1.68-.38s.87-.25,1.09-.35c.22-.1,.39-.22,.53-.35s.23-.28,.29-.42,.09-.3,.09-.47c0-.45-.19-.79-.56-1.03-.38-.24-.93-.36-1.65-.36-2.01,0-4.5,.57-7.47,1.71Z"/>
    <path class="cls-1" d="M281.42,24.45l.31-3.78,.68-13.14,.19-7.07c1.63,.02,2.86,.04,3.68,.04,1.07,0,2.25-.01,3.54-.04l-.4,5.4-.65,13.29-.14,5.31c-1.26-.01-2.39-.02-3.4-.02l-3.82,.02Z"/>
  </g>
  <g>
    <path d="M45.28,34.25h.86l.69,3.57c.13,.7,.26,1.41,.38,2.11h.04c.15-.71,.3-1.41,.46-2.11l.91-3.57h.76l.91,3.57c.16,.69,.32,1.41,.47,2.11h.04c.13-.71,.24-1.42,.37-2.11l.69-3.57h.81l-1.36,6.56h-1l-.99-3.94c-.11-.51-.22-.99-.32-1.49h-.04c-.1,.51-.22,.98-.33,1.49l-.97,3.94h-.99l-1.39-6.56Z"/>
    <path d="M54.84,38.38c0-1.58,1.07-2.56,2.18-2.56,1.24,0,1.94,.89,1.94,2.28,0,.17-.01,.35-.04,.47h-3.27c.06,1.03,.69,1.7,1.61,1.7,.47,0,.85-.15,1.21-.39l.29,.54c-.43,.28-.94,.5-1.6,.5-1.29,0-2.33-.95-2.33-2.54Zm3.4-.4c0-.97-.44-1.5-1.2-1.5-.68,0-1.29,.55-1.39,1.5h2.59Z"/>
    <path d="M62.4,40.3h-.03l-.08,.5h-.66v-7.12h.82v1.95l-.03,.87c.44-.38,.99-.68,1.53-.68,1.26,0,1.93,.97,1.93,2.47,0,1.66-.99,2.63-2.1,2.63-.45,0-.96-.23-1.39-.62Zm2.64-1.99c0-1.07-.37-1.79-1.28-1.79-.41,0-.84,.23-1.3,.66v2.55c.43,.37,.86,.51,1.18,.51,.8,0,1.4-.72,1.4-1.92Z"/>
    <path d="M71.76,37.53c0-2.12,1.25-3.41,2.91-3.41,.8,0,1.42,.39,1.8,.81l-.46,.54c-.35-.37-.78-.62-1.33-.62-1.24,0-2.06,1.02-2.06,2.65s.79,2.68,2.03,2.68c.63,0,1.1-.27,1.52-.74l.46,.52c-.52,.6-1.16,.95-2.01,.95-1.63,0-2.86-1.26-2.86-3.39Zm1.97,5.13c.84-.05,1.09-.2,1.09-.5,0-.26-.2-.4-.77-.48l.44-.91h.54l-.29,.67c.46,.11,.73,.3,.73,.71,0,.58-.59,.86-1.64,.92l-.08-.41Z"/>
    <path d="M78.88,38.38c0-1.62,1.06-2.56,2.25-2.56s2.25,.93,2.25,2.56-1.06,2.54-2.25,2.54-2.25-.93-2.25-2.54Zm.79-3.94c0-.28,.21-.5,.5-.5s.5,.22,.5,.5-.21,.5-.5,.5-.5-.22-.5-.5Zm2.86,3.94c0-1.11-.57-1.87-1.4-1.87s-1.4,.76-1.4,1.87,.57,1.86,1.4,1.86,1.4-.75,1.4-1.86Zm-.94-3.94c0-.28,.21-.5,.5-.5s.5,.22,.5,.5-.21,.5-.5,.5-.5-.22-.5-.5Z"/>
    <path d="M85.57,40.37l2.56-3.75h-2.27v-.67h3.31v.44l-2.56,3.75h2.64v.67h-3.68v-.44Z"/>
    <path d="M91.63,39.03v-3.08h.82v2.97c0,.9,.27,1.29,.92,1.29,.5,0,.84-.25,1.3-.82v-3.45h.82v4.86h-.68l-.07-.76h-.03c-.45,.53-.94,.88-1.6,.88-1.02,0-1.48-.66-1.48-1.9Zm.51-4.59c0-.28,.21-.5,.5-.5s.5,.22,.5,.5-.21,.5-.5,.5-.5-.22-.5-.5Zm1.92,0c0-.28,.21-.5,.5-.5s.5,.22,.5,.5-.21,.5-.5,.5-.5-.22-.5-.5Z"/>
    <path d="M98.61,35.95h.68l.07,.7h.03c.42-.46,.93-.82,1.51-.82,.74,0,1.14,.36,1.34,.93,.5-.55,1.01-.93,1.6-.93,1,0,1.48,.66,1.48,1.9v3.08h-.82v-2.97c0-.9-.29-1.29-.9-1.29-.38,0-.77,.25-1.22,.75v3.52h-.82v-2.97c0-.9-.29-1.29-.9-1.29-.36,0-.77,.25-1.22,.75v3.52h-.82v-4.86Z"/>
    <path d="M108.37,39.83v-6.15h.82v6.2c0,.25,.11,.35,.23,.35,.05,0,.09,0,.18-.02l.11,.63c-.12,.04-.26,.08-.47,.08-.62,0-.87-.39-.87-1.1Z"/>
    <path d="M112.02,38.38c0-1.58,1.07-2.56,2.18-2.56,1.24,0,1.94,.89,1.94,2.28,0,.17-.01,.35-.04,.47h-3.27c.06,1.03,.69,1.7,1.61,1.7,.47,0,.85-.15,1.21-.39l.29,.54c-.43,.28-.94,.5-1.6,.5-1.29,0-2.33-.95-2.33-2.54Zm3.4-.4c0-.97-.44-1.5-1.2-1.5-.68,0-1.29,.55-1.39,1.5h2.59Z"/>
    <path d="M118.82,35.95h.68l.07,.88h.03c.34-.62,.83-1,1.38-1,.21,0,.37,.03,.52,.1l-.15,.72c-.17-.05-.28-.08-.47-.08-.41,0-.9,.3-1.23,1.12v3.12h-.82v-4.86Z"/>
    <path d="M123.6,34.42c0-.32,.25-.53,.57-.53s.57,.21,.57,.53-.25,.53-.57,.53-.57-.22-.57-.53Zm.15,1.53h.82v4.86h-.82v-4.86Z"/>
    <path d="M131.25,33.31h.58v9.99h-.58v-9.99Z"/>
    <path d="M138.58,34.25h1.64c2.02,0,3.1,1.17,3.1,3.26s-1.08,3.3-3.06,3.3h-1.68v-6.56Zm1.58,5.88c1.53,0,2.3-.96,2.3-2.62s-.76-2.57-2.3-2.57h-.74v5.19h.74Z"/>
    <path d="M145.97,34.42c0-.32,.25-.53,.57-.53s.57,.21,.57,.53-.25,.53-.57,.53-.57-.22-.57-.53Zm.15,1.53h.82v4.86h-.82v-4.86Z"/>
    <path d="M148.84,42.85l.16-.63c.13,.04,.29,.09,.46,.09,.49,0,.6-.36,.6-.95v-5.4h.82v5.41c0,.99-.36,1.62-1.33,1.62-.29,0-.54-.06-.71-.13Zm1.07-8.43c0-.32,.25-.53,.57-.53s.57,.21,.57,.53-.25,.53-.57,.53-.57-.22-.57-.53Z"/>
    <path d="M153.84,34.42c0-.32,.25-.53,.57-.53s.57,.21,.57,.53-.25,.53-.57,.53-.57-.22-.57-.53Zm.15,1.53h.82v4.86h-.82v-4.86Z"/>
    <path d="M158.07,39.3v-2.69h-.72v-.62l.76-.05,.1-1.36h.69v1.36h1.32v.67h-1.32v2.7c0,.59,.19,.94,.75,.94,.17,0,.4-.07,.55-.13l.16,.62c-.27,.09-.6,.18-.9,.18-1.03,0-1.38-.66-1.38-1.62Z"/>
    <path d="M162.26,39.54c0-1.06,.91-1.59,2.98-1.81,0-.62-.21-1.23-1-1.23-.56,0-1.07,.27-1.45,.52l-.32-.56c.45-.29,1.13-.63,1.91-.63,1.19,0,1.69,.79,1.69,2v2.98h-.68l-.07-.58h-.03c-.46,.38-1,.7-1.61,.7-.81,0-1.42-.5-1.42-1.38Zm2.98,.08v-1.35c-1.63,.2-2.18,.59-2.18,1.22,0,.55,.38,.78,.85,.78s.86-.23,1.33-.64Z"/>
    <path d="M169.07,39.83v-6.15h.82v6.2c0,.25,.11,.35,.23,.35,.05,0,.09,0,.18-.02l.11,.63c-.12,.04-.26,.08-.47,.08-.62,0-.87-.39-.87-1.1Z"/>
    <path d="M175.75,34.25h.88l1.06,3.55c.23,.77,.39,1.4,.63,2.17h.04c.24-.77,.4-1.39,.63-2.17l1.05-3.55h.85l-2.08,6.56h-.97l-2.1-6.56Z"/>
    <path d="M182.66,39.54c0-1.06,.91-1.59,2.98-1.81,0-.62-.21-1.23-1-1.23-.56,0-1.07,.27-1.45,.52l-.32-.56c.45-.29,1.13-.63,1.91-.63,1.19,0,1.69,.79,1.69,2v2.98h-.68l-.07-.58h-.03c-.46,.38-1,.7-1.61,.7-.81,0-1.42-.5-1.42-1.38Zm2.98,.08v-1.35c-1.63,.2-2.18,.59-2.18,1.22,0,.55,.38,.78,.85,.78s.86-.23,1.33-.64Z"/>
    <path d="M189.47,35.95h.68l.07,.88h.03c.34-.62,.83-1,1.38-1,.22,0,.37,.03,.52,.1l-.15,.72c-.17-.05-.28-.08-.47-.08-.41,0-.9,.3-1.23,1.12v3.12h-.82v-4.86Z"/>
    <path d="M194.41,39.83v-6.15h.82v6.2c0,.25,.11,.35,.23,.35,.05,0,.09,0,.18-.02l.11,.63c-.12,.04-.26,.08-.47,.08-.62,0-.87-.39-.87-1.1Z"/>
    <path d="M198.43,35.95h.82v4.86h-.82v-4.86Z"/>
    <path d="M202.36,33.68h.81v4.82h.03l2.07-2.56h.91l-1.63,1.95,1.84,2.91h-.9l-1.42-2.33-.91,1.06v1.28h-.81v-7.12Z"/>
  </g>
</svg>